PathFileType	4	(X/Y/Z)	/Users/visionmauri/1_7_1_f_Sports2D/1_7_1_f_Sports2D_px_person00.trc
DataRate	CameraRate	NumFrames	NumMarkers	Units	OrigDataRate	OrigDataStartFrame	OrigNumFrames
30.0	30.0	11	22	m	30.0	97	389
Frame#	Time	Hip			RHip			RKnee			RAnkle			RBigToe			RSmallToe			RHeel			LHip			LKnee			LAnkle			LBigToe			LSmallToe			LHeel			Neck			Head			Nose			RShoulder			RElbow			RWrist			LShoulder			LElbow			LWrist			
		X1	Y1	Z1	X2	Y2	Z2	X3	Y3	Z3	X4	Y4	Z4	X5	Y5	Z5	X6	Y6	Z6	X7	Y7	Z7	X8	Y8	Z8	X9	Y9	Z9	X10	Y10	Z10	X11	Y11	Z11	X12	Y12	Z12	X13	Y13	Z13	X14	Y14	Z14	X15	Y15	Z15	X16	Y16	Z16	X17	Y17	Z17	X18	Y18	Z18	X19	Y19	Z19	X20	Y20	Z20	X21	Y21	Z21	X22	Y22	Z22
97	3.2416666666666667	605.9214638709236	879.977714071041	0.0	667.0812706617992	883.2644946799315	0.0	663.5764975939427	1140.3692825358046	0.0	646.1028499151339	1365.3562486475842	0.0	621.3801228329532	1397.3978586965643	0.0	666.6053118316999	1410.6100445243014	0.0	638.5051181496461	1402.9692138469434	0.0	549.0310345430206	886.9142477093246	0.0	549.9625220746747	1089.3691181798756	0.0	551.3455115618115	1103.6744579535757	0.0	560.6845739342209	1142.3548981620354	0.0	526.9438864589731	1171.3657097576458	0.0	558.9578520396925	1108.8955976016832	0.0	597.5404266600771	589.7180250803809	0.0	607.5549511719354	493.6669297652572	0.0	604.3964569567423	549.1477229191813	0.0	704.6667434509129	599.1709268874682	0.0	760.601449570658	722.5106305863358	0.0	801.1705305214313	882.4540773767686	0.0	490.4835908808576	613.9044610225932	0.0	434.72559289563134	776.4634948394588	0.0	443.34322855476466	803.9500774474037	0.0
98	3.275085910652921	607.9578634244839	876.6541488040693	0.0	668.890729185518	880.7996257688955	0.0	664.2616927808108	1136.931315454602	0.0	646.4222795263221	1363.5002032013485	0.0	619.2988022168979	1397.286833834531	0.0	665.6282527656819	1410.1131283857594	0.0	637.3934079314424	1400.2127221626176	0.0	551.8448277889972	883.69282895618	0.0	552.399144318688	1083.6620898312808	0.0	554.4266679822193	1093.9708871643793	0.0	561.7172411676854	1127.396288495779	0.0	528.4949356801422	1147.2441980956812	0.0	560.3007906710748	1088.7210520957983	0.0	601.2004983742821	587.1859177230776	0.0	610.9996976799052	491.2523469496969	0.0	608.3621062175619	545.4224191764833	0.0	707.6726662790146	598.7441594005364	0.0	764.0145186127993	723.0885872640616	0.0	801.8521628554925	878.8265361113492	0.0	494.8841224628538	610.2925245555374	0.0	438.5606175237865	774.3473462391327	0.0	447.70736338181166	800.2145708285768	0.0
99	3.308505154639175	611.073590141399	873.1637609350056	0.0	671.4760594239681	879.5053338887913	0.0	664.812617793285	1134.9174209856803	0.0	646.0735854949971	1362.5130262230498	0.0	621.6955515218455	1396.508858422254	0.0	665.5719559909206	1408.3442097708848	0.0	635.9662772319933	1398.772988622647	0.0	554.905467418101	881.5296214105371	0.0	555.8352811116949	1080.2783309744407	0.0	557.4719459440071	1092.0557282167717	0.0	562.0726246397484	1153.7349538688488	0.0	529.4096314262459	1159.9101911251635	0.0	562.0443158801359	1073.3264381681024	0.0	604.3194701335422	585.3574581511804	0.0	614.5874007070594	488.32231876614367	0.0	612.6914665942157	543.3804326954776	0.0	710.2539773237489	598.7715420282889	0.0	767.8079994795534	723.7327095821285	0.0	803.8538867931003	875.3686065992605	0.0	498.295141011837	607.8212880338592	0.0	443.31560682628907	770.863141003307	0.0	451.1887114016591	792.5264785143314	0.0
100	3.3419243986254297	614.6109269249354	870.2438252233762	0.0	674.6457075510724	878.5054929970386	0.0	665.5480772306352	1135.9093639095422	0.0	645.6403971246252	1362.4200122124132	0.0	627.0766500678121	1395.0358294998596	0.0	666.2618432112695	1404.3428322170548	0.0	634.7798424804489	1398.4453546644784	0.0	558.3127176405076	880.7595338732148	0.0	559.4080576459401	1080.1584068061868	0.0	559.116336995018	1093.8526987938637	0.0	560.5687552853101	1250.2677982604428	0.0	529.6495184472869	1236.0556395397502	0.0	563.0049189003687	1066.679688891285	0.0	607.4287514100733	584.5247566902282	0.0	618.0309509360748	486.63005457902557	0.0	617.0627732368309	543.452859836963	0.0	712.9630329647559	597.7577776008483	0.0	771.9055259564223	723.4343543983165	0.0	806.2022840063058	872.9648068187506	0.0	501.63032768915343	606.4233032019313	0.0	449.13971360287815	767.8978296900782	0.0	455.028973492268	784.1293811734433	0.0
101	3.375343642611684	617.5157555783894	867.9137427021526	0.0	678.0004802259301	877.0441364237379	0.0	666.7920304045535	1139.9358307388775	0.0	645.5576130601269	1362.5527318991453	0.0	630.2495659494241	1392.9471843015567	0.0	666.9155231690112	1399.7130293441096	0.0	634.3031170177323	1398.2575112668715	0.0	561.340578000417	879.9488304037528	0.0	561.3460535536253	1080.4272445724905	0.0	560.3773961901913	1095.6296991506347	0.0	558.0717337496219	1350.2919410006048	0.0	529.6260095737257	1340.032430460224	0.0	563.9405697524894	1067.8727890420207	0.0	611.2968107970787	584.1742182674067	0.0	621.0158228120484	486.67482290790196	0.0	620.7120309305557	543.8111441549323	0.0	716.7351727239692	596.0432801602911	0.0	776.0769685342863	722.7418341776557	0.0	807.4726522275237	871.8791593027302	0.0	506.0833915188813	605.1314321503164	0.0	454.80518990032033	766.4889323113073	0.0	459.4797524854767	779.4853118519263	0.0
102	3.408762886597938	619.4878639885018	865.6292475488016	0.0	680.4641909677732	875.0447579259753	0.0	667.9477006593561	1143.7584170000484	0.0	645.6572055256603	1361.8554590494455	0.0	629.9998053612615	1390.2201188127087	0.0	667.2570053556241	1396.9017086965475	0.0	634.8080790927875	1397.904616451789	0.0	563.0153340846925	877.7319286637548	0.0	561.5534774452748	1079.6567095882126	0.0	562.1672226731616	1096.0228179809856	0.0	555.9485040865413	1341.3859163243114	0.0	529.072739558471	1403.787398542026	0.0	566.5387571916483	1079.5000492484419	0.0	615.6668082862991	583.6740064718334	0.0	622.9730011804185	487.1815409383187	0.0	623.4089342098804	543.2565326142362	0.0	721.6625064979678	595.7376107209586	0.0	779.6882040455063	722.9996895592258	0.0	807.7143770207637	871.9494658838447	0.0	511.4050906352999	603.3562109795205	0.0	459.5357203705096	764.2265938293418	0.0	463.6754108751731	776.8197335770434	0.0
103	3.442182130584192	621.0136703199022	863.5865069088047	0.0	681.4137346224468	872.9440539230029	0.0	668.3343858155071	1144.369095034819	0.0	645.9261576426755	1359.9989860487701	0.0	628.6341424495529	1387.8054781004153	0.0	666.7441385988595	1396.5000168257222	0.0	636.4058208744277	1397.4845436950648	0.0	563.7007358346491	874.4323954587145	0.0	561.5300801979158	1078.2740222031027	0.0	564.20958423639	1096.1864488181907	0.0	555.2961615826415	1230.5308369822508	0.0	528.0790255421997	1409.4044733161732	0.0	570.722195439564	1099.8377944528447	0.0	619.831829510114	582.80967562728	0.0	624.1217288405797	487.4764792612793	0.0	626.0294927822712	541.9719573424061	0.0	726.4884789671041	597.2112855449244	0.0	782.0475455069984	724.7066561771018	0.0	807.5405970894906	872.6403319363527	0.0	516.4935479027911	601.3488947465294	0.0	463.9966753784197	760.1170512133741	0.0	468.6941387320624	771.7725297561676	0.0
104	3.475601374570447	623.0168406139603	862.9648394552593	0.0	681.8381092825482	871.232191644488	0.0	668.5154041121972	1142.4523715467674	0.0	646.4901395386379	1358.0652812806443	0.0	628.0830968241268	1386.7314005353467	0.0	665.0448591458551	1397.4069787648623	0.0	638.5357238248907	1396.1871122916377	0.0	565.3780538311476	871.7164762423185	0.0	562.5284078947208	1074.3301418952137	0.0	566.725986918472	1096.084464746713	0.0	557.6639465291436	1134.5575190346183	0.0	528.9801822392432	1388.3253889980206	0.0	574.6985793397066	1113.9411697486307	0.0	623.5313111797782	581.7332309660521	0.0	625.6700927206949	487.9551935959101	0.0	628.9159473571439	540.484167343978	0.0	729.6848364105861	598.4558644460081	0.0	783.6999622469377	726.5368870434941	0.0	807.4745286830209	873.4559650031465	0.0	520.9160703240224	599.4837948424579	0.0	468.5117722433443	756.3155323337445	0.0	476.1558351504615	765.4073894863815	0.0
105	3.509020618556701	625.8841236178863	863.6904687752864	0.0	682.9399575047352	870.0215294984866	0.0	669.3835775270929	1140.5098747636503	0.0	647.1926221024878	1356.9664049844448	0.0	629.2072205461243	1386.3024850839647	0.0	663.5027926784514	1398.3622068443235	0.0	640.1802448465091	1393.2413052045083	0.0	568.9729093477486	870.3807104299511	0.0	564.6946049212502	1065.8507358803195	0.0	569.9211071862658	1095.2577285528193	0.0	562.6693150272462	1123.8307721712342	0.0	533.4291256404445	1367.1989609904495	0.0	577.3163094411133	1112.9042531443156	0.0	626.6780475777572	580.925437838115	0.0	628.3568342372977	488.9495898000447	0.0	631.2372172024567	539.9040556526562	0.0	731.1210300064703	598.369058295028	0.0	786.2549599959218	727.2832034238564	0.0	808.0899877490366	874.157549171008	0.0	524.7326616718096	597.9301752780023	0.0	472.0918600919877	754.3328135603497	0.0	484.16386638366833	761.4786736901848	0.0
106	3.542439862542955	628.7031668227644	864.0020886612567	0.0	684.3100021919755	868.8363290588029	0.0	670.7882102013273	1139.7517891928046	0.0	647.888379885621	1356.4013448076419	0.0	630.81772915892	1385.8192491519337	0.0	663.898799866975	1398.9546055041903	0.0	640.8051557701988	1390.3131193080662	0.0	572.5848495867882	869.2299420608493	0.0	567.2624818231495	1056.2405816086602	0.0	572.4544357086285	1106.8347001258594	0.0	566.8175583669741	1187.1452152130623	0.0	538.4223008692892	1355.2511877288225	0.0	578.768175446071	1119.5471903282582	0.0	629.2246002272973	580.8465773535102	0.0	631.9571348487433	490.10019954442504	0.0	632.9731769274126	541.1643874378452	0.0	731.9666664702625	598.0352899265897	0.0	790.0834024657141	727.4240172010055	0.0	809.2839354827237	874.783111563605	0.0	527.9895238598566	597.0259640322289	0.0	474.0729399739367	753.5267339498837	0.0	488.7745838263963	760.8952215923993	0.0
107	3.5758591065292094	630.4376983573823	863.2166136874654	0.0	685.0322895202736	867.2914306959914	0.0	671.7999260792649	1139.4022060197397	0.0	648.5269105626644	1356.086052560581	0.0	630.9133837011747	1385.5181624231936	0.0	665.9755869376529	1399.21411775617	0.0	640.7395900397447	1389.7440167685904	0.0	574.0331176571157	867.4322184293192	0.0	569.3100915068775	1050.896803049265	0.0	573.1299490606586	1152.4286148115177	0.0	568.6140909373014	1276.23340886339	0.0	540.7425855441039	1352.4984216752575	0.0	579.4275610758788	1166.8830261376838	0.0	631.1103722193976	581.2097054566829	0.0	635.7476450436735	490.45920053739945	0.0	634.9897085075183	543.2366798450946	0.0	732.6586909556083	598.3376895381349	0.0	793.8013009171154	727.2146166275919	0.0	810.6683101284541	874.9783265745734	0.0	530.7761601433152	596.9018279732975	0.0	475.1282577139222	752.9584139065761	0.0	488.4834462368583	762.1371423019849	0.0
